<svg aria-hidden="true" style="position: absolute; width: 0; height: 0; overflow: hidden;" version="1.1" xmlns="http://www.w3.org/2000/svg" xmlns:xlink="http://www.w3.org/1999/xlink">
<defs>
<symbol id="icon-buttonleft" viewBox="0 0 32 32">
<path stroke-linejoin="miter" stroke-linecap="butt" stroke-miterlimit="4" stroke-width="0.6038" d="M16 31.698c-8.67 0-15.698-7.028-15.698-15.698s7.028-15.698 15.698-15.698c8.67 0 15.698 7.028 15.698 15.698s-7.028 15.698-15.698 15.698z"></path>
<path stroke-linejoin="miter" stroke-linecap="butt" stroke-miterlimit="4" stroke-width="0.6038" d="M25.057 16h-18.113M6.943 16l6.943 6.943M6.943 16l6.943-6.943"></path>
</symbol>
<symbol id="icon-buttonright" viewBox="0 0 32 32">
<path stroke-linejoin="miter" stroke-linecap="butt" stroke-miterlimit="4" stroke-width="0.6038" d="M16 0.302c8.67 0 15.698 7.028 15.698 15.698s-7.028 15.698-15.698 15.698c-8.67 0-15.698-7.028-15.698-15.698s7.028-15.698 15.698-15.698z"></path>
<path stroke-linejoin="miter" stroke-linecap="butt" stroke-miterlimit="4" stroke-width="0.6038" d="M6.943 16h18.113M25.057 16l-6.943-6.943M25.057 16l-6.943 6.943"></path>
</symbol>
<symbol id="icon-instagram" viewBox="0 0 32 32">
<path stroke-linejoin="miter" stroke-linecap="butt" stroke-miterlimit="4" stroke-width="2.3704" d="M8.889 1.778h14.222c3.927 0 7.111 3.184 7.111 7.111v14.222c0 3.927-3.184 7.111-7.111 7.111h-14.222c-3.927 0-7.111-3.184-7.111-7.111v-14.222c0-3.927 3.184-7.111 7.111-7.111z"></path>
<path stroke-linejoin="miter" stroke-linecap="butt" stroke-miterlimit="4" stroke-width="2.3704" d="M23.689 15.999c0 4.247-3.443 7.689-7.689 7.689s-7.689-3.443-7.689-7.689c0-4.247 3.443-7.689 7.689-7.689s7.689 3.443 7.689 7.689z"></path>
<path stroke-linejoin="miter" stroke-linecap="butt" stroke-miterlimit="4" stroke-width="2.3704" d="M26.291 7.357c0 0.942-0.764 1.706-1.706 1.706s-1.706-0.764-1.706-1.705c0-0.942 0.764-1.705 1.706-1.705s1.706 0.764 1.706 1.705z"></path>
</symbol>
<symbol id="icon-phone" viewBox="0 0 32 32">
<path stroke-linejoin="miter" stroke-linecap="butt" stroke-miterlimit="4" stroke-width="1.8824" d="M13.020 6.691c0.68 0.715 0 1.926-0.425 2.443l-1.656 1.562c-0.895 0.844-1.157 2.183-0.51 3.229 2.289 3.698 5.44 6.070 7.69 7.293 1.001 0.544 2.204 0.235 2.992-0.588 0.648-0.677 1.349-1.383 1.813-1.784 0.678-0.586 1.538-0.411 2.071-0.165 0.206 0.095 0.375 0.249 0.529 0.416 1.147 1.249 3.361 3.627 4.63 4.872 1.138 1.115 0.996 1.948 0.682 2.365-0.112 0.148-0.258 0.266-0.387 0.4-0.467 0.486-1.434 1.435-2.726 2.538-1.883 1.609-3.402 1.787-4.374 1.787s-4.496-0.477-8.992-3.694c-4.496-3.217-8.992-8.043-10.45-10.784s-2.491-4.885-2.795-7.447c-0.243-2.050-0.364-2.443 0.608-4.051 0.702-1.162 2.868-2.884 3.645-3.694 0.677-0.706 1.65-0.438 2.21-0.134 0.151 0.082 0.28 0.195 0.401 0.317 1.518 1.531 4.391 4.434 5.044 5.12z"></path>
</symbol>
<symbol id="icon-facebook" viewBox="0 0 32 32">
<path stroke-linejoin="miter" stroke-linecap="butt" stroke-miterlimit="4" stroke-width="2.3704" d="M19.799 21.474v8.749h6.125c3.298 0 4.24-2.583 4.299-3.875-0.059-5.793-0.2-18.038-0.294-20.668s-2.081-3.68-3.062-3.875c-6.007-0.020-18.716-0.047-21.495 0s-3.553 2.603-3.592 3.875v20.668c0 2.63 2.395 3.68 3.592 3.875h8.951v-8.749h-3.416v-5.402h3.416v-3.817c0.424-3.946 3.632-4.971 5.182-4.991h5.241v5.461h-4.947v3.347h4.947l-0.942 5.402h-4.005z"></path>
</symbol>
<symbol id="icon-untitled" viewBox="0 0 32 32">
<path stroke-linejoin="miter" stroke-linecap="butt" stroke-miterlimit="4" stroke-width="1.6" d="M24.7 9.782c0 1.933-1 4.812-2.522 8.104-1.504 3.253-3.45 6.772-5.217 9.941-0.323 0.579-1.307 0.589-1.643-0.094-0.769-1.561-1.663-3.227-2.565-4.902l-0.104-0.194c-0.869-1.616-1.742-3.238-2.527-4.801-0.816-1.627-1.528-3.173-2.034-4.561-0.51-1.4-0.789-2.58-0.789-3.493 0-4.477 3.852-8.182 8.7-8.182s8.7 3.705 8.7 8.182z"></path>
<path stroke-linejoin="miter" stroke-linecap="butt" stroke-miterlimit="4" stroke-width="1.6" d="M19.2 10.4c0 1.767-1.433 3.2-3.2 3.2s-3.2-1.433-3.2-3.2c0-1.767 1.433-3.2 3.2-3.2s3.2 1.433 3.2 3.2z"></path>
</symbol>
<symbol id="icon-email" viewBox="0 0 32 32">
<path stroke-linejoin="miter" stroke-linecap="butt" stroke-miterlimit="4" stroke-width="1.4545" d="M4.031 5.583h23.273c1.205 0 2.182 0.977 2.182 2.182v17.455c0 1.205-0.977 2.182-2.182 2.182h-23.273c-1.205 0-2.182-0.977-2.182-2.182v-17.455c0-1.205 0.977-2.182 2.182-2.182z"></path>
<path stroke-linejoin="miter" stroke-linecap="butt" stroke-miterlimit="4" stroke-width="1.4545" d="M17.172 16.937c-0.715 0.455-1.629 0.455-2.344 0l-11.43-7.278c-1.841-1.172-1.011-4.022 1.172-4.022h22.86c2.182 0 3.013 2.85 1.172 4.022l-11.43 7.278z"></path>
</symbol>
</defs>
</svg>
